# AST/ASF file generated using VICON BodyLanguage
# -----------------------------------------------
:version 1.10
:name VICON
:units
  mass 1.0
  length 0.45
  angle deg
:documentation
   .ast/.asf automatically generated from VICON data using
   VICON BodyBuilder and BodyLanguage model FoxedUp or BRILLIANT.MOD
:root
   order TX TY TZ RX RY RZ
   axis XYZ
   position 0 0 0  
   orientation 0 0 0 
:bonedata
  begin
     id 1 
     name lhipjoint
     direction 0.588788 -0.725889 0.355548 
     length 2.37778 
     axis 0 0 0  XYZ
  end
  begin
     id 2 
     name lfemur
     direction 0.34202 -0.939693 0  
     length 6.86393  
     axis 0 0 20  XYZ
    dof rx ry rz
    limits (-160.0 20.0)
           (-70.0 70.0)
           (-60.0 70.0)
  end
  begin
     id 3 
     name ltibia
     direction 0.34202 -0.939693 0   
     length 7.32851   
     axis 0 0 20   XYZ
    dof rx
    limits (-10.0 170.0)
  end
  begin
     id 4 
     name lfoot
     direction 0.0626533 -0.172138 0.983078   
     length 1.98929   
     axis -90 7.62852e-016 20   XYZ
    dof rx rz
    limits (-45.0 90.0)
           (-70.0 20.0)
  end
  begin
     id 5 
     name ltoes
     direction 1.53647e-011 -4.21734e-011 1   
     length 1.00479   
     axis -90 7.62852e-016 20   XYZ
    dof rx
    limits (-90.0 20.0)
  end
  begin
     id 6 
     name rhipjoint
     direction -0.59141 -0.724168 0.354705   
     length 2.38343  
     axis 0 0 0  XYZ 
  end
  begin
     id 7 
     name rfemur
     direction -0.34202 -0.939693 0   
     length 6.95589   
     axis 0 0 -20   XYZ
    dof rx ry rz
    limits (-160.0 20.0)
           (-70.0 70.0)
           (-70.0 60.0)
  end
  begin
     id 8 
     name rtibia
     direction -0.34202 -0.939693 0   
     length 7.32327   
     axis 0 0 -20   XYZ
    dof rx
    limits (-10.0 170.0)
 end
 begin
     id 9 
     name rfoot
     direction -0.0660461 -0.18146 0.981178   
     length 1.85272  
     axis -90 -7.62852e-016 -20   XYZ
    dof rx rz
    limits (-45.0 90.0)
           (-20.0 70.0)
  end
  begin
     id 10 
     name rtoes
     direction -1.53586e-011 -4.21988e-011 1   
     length 0.93746   
     axis -90 -7.62852e-016 -20   XYZ
    dof rx
    limits (-90.0 20.0)
  end
  begin
     id 11 
     name lowerback
     direction -0.0107982 0.991059 0.13299   
     length 1.98691   
     axis 0 0 0   XYZ
    dof rx ry rz
    limits (-20.0 45.0)
           (-30.0 30.0)
           (-30.0 30.0)
  end
  begin
     id 12 
     name upperback
     direction 0.0076296 0.999916 0.0104576   
     length 1.99501   
     axis 0 0 0   XYZ
    dof rx ry rz
    limits (-20.0 45.0)
           (-30.0 30.0)
           (-30.0 30.0)
  end
  begin
     id 13 
     name thorax
     direction 0.01176 0.998615 -0.0512909   
     length 2.03144   
     axis 0 0 0   XYZ
    dof rx ry rz
    limits (-20.0 45.0)
           (-30.0 30.0)
           (-30.0 30.0)
  end
  begin
     id 14 
     name lowerneck
     direction -0.0171909 0.999644 0.0204011   
     length 1.71818   
     axis 0 0 0   XYZ
    dof rx ry rz
    limits (-20.0 45.0)
           (-30.0 30.0)
           (-30.0 30.0)
  end
  begin
     id 15 
     name upperneck
     direction 0.0250902 0.997482 -0.0663316   
     length 1.66199   
     axis 0 0 0   XYZ
    dof rx ry rz
    limits (-20.0 45.0)
           (-30.0 30.0)
           (-30.0 30.0)
  end
  begin
     id 16
     name head
     direction 0.00881535 0.99956 -0.0283365  
     length 1.81545  
     axis 0 0 0   XYZ
    dof rx ry rz
    limits (-20.0 45.0)
           (-30.0 30.0)
           (-30.0 30.0)
  end
  begin
     id 17 
     name lclavicle
     direction 0.840411 0.486876 -0.238035  
     length 3.30409  
     axis 0 0 0   XYZ
    dof ry rz
    limits (-20.0 10.0)
           (0.0 20.0)
  end
  begin
     id 18 
     name lhumerus
     direction 1 -4.48977e-011 -5.16239e-027   
     length 4.62672   
     axis 180 -30 -90   XYZ
    dof rx ry rz
    limits (-60.0 90.0)
           (-90.0 90.0)
           (-90.0 90.0)
  end
  begin
     id 19
     name lradius
     direction 1 -4.48977e-011 -8.71171e-027   
     length 3.11018   
     axis 180 -30 -90   XYZ
    dof rx
    limits (-10.0 170.0)
  end
  begin
     id 20
     name lwrist
     direction 1 -4.48912e-011 -1.03764e-026   
     length 1.55509   
     axis 9.09556e-015 90 90   XYZ
    dof ry
    limits (-180.0 0.0)
 end
  begin
     id 21 
     name lhand
     direction 1 -4.49072e-011 -2.07528e-026   
     length 0.743834   
     axis 1.3242e-014 90 90   XYZ
    dof rx rz
    limits (-90.0 90.0)
           (-45.0 45.0)
  end
  begin
     id 22 
     name lfingers
     direction 1 -4.48909e-011 -4.15056e-026   
     length 0.599698   
     axis 2.64841e-014 90 90   XYZ
    dof rx
    limits (0.0 90.0)
  end
  begin
     id 23
     name lthumb
     direction 0.707107 -6.35013e-011 0.707107   
     length 0.86105   
     axis -90 45 2.85299e-015   XYZ
    dof rx rz
    limits (-45.0 45.0)
           (-45.0 45.0)
  end
  begin
     id 24 
     name rclavicle
     direction -0.835208 0.500237 -0.228452   
     length 3.2716  
     axis 0 0 0   XYZ 
    dof ry rz
    limits (-10.0 20.0)
           (-20.0 0.0)
  end
  begin
     id 25 
     name rhumerus
     direction -1 -4.48978e-011 -5.1953e-028  
     length 4.55919   
     axis 180 30 90   XYZ
    dof rx ry rz
    limits (-90.0 60.0)
           (-90.0 90.0)
           (-90.0 90.0)
  end
  begin
     id 26 
     name rradius
     direction -1 -4.48961e-011 -5.99546e-027   
     length 3.22748   
     axis 180 30 90   XYZ
    dof rx
    limits (-10.0 170.0)
  end
  begin
     id 27 
     name rwrist
     direction -1 -4.48986e-011 -1.03764e-026   
     length 1.61374   
     axis 9.09556e-015 -90 -90   XYZ
    dof ry
    limits (-180.0 0.0)
  end
  begin
     id 28
     name rhand
     direction -1 -4.4899e-011 -2.07528e-026   
     length 0.700882   
     axis 1.3242e-014 -90 -90   XYZ
    dof rx rz
    limits (-90.0 90.0)
           (-45.0 45.0)
  end
  begin
     id 29
     name rfingers
     direction -1 -4.48991e-011 -4.15056e-026   
     length 0.565069   
     axis 2.64841e-014 -90 -90   XYZ
    dof rx
    limits (0.0 90.0)
  end
  begin
     id 30
     name rthumb
     direction -0.707107 -6.34804e-011 0.707107   
     length 0.811329   
     axis -90 -45 -2.85299e-015   XYZ
    dof rx rz
    limits (-45.0 45.0)
           (-45.0 45.0)
  end
:hierarchy
  begin
    root lhipjoint rhipjoint lowerback
    lhipjoint lfemur
    lfemur ltibia
    ltibia lfoot
    lfoot ltoes
    rhipjoint rfemur
    rfemur rtibia
    rtibia rfoot
    rfoot rtoes
    lowerback upperback
    upperback thorax
    thorax lowerneck lclavicle rclavicle
    lowerneck upperneck
    upperneck head
    lclavicle lhumerus
    lhumerus lradius
    lradius lwrist
    lwrist lhand lthumb
    lhand lfingers
    rclavicle rhumerus
    rhumerus rradius
    rradius rwrist
    rwrist rhand rthumb
    rhand rfingers
  end

#!OML:ASF F:\VICON\USERDATA\INSTALL\SteveWalk\SteveWalk.ASF
:FULLY-SPECIFIED
:DEGREES
385
root 0.219768 16.1635 41.4851 17.8148 4.73859 0.0113868
lowerback -15.6556 -0.836657 1.23857
upperback -5.67326 -1.35971 2.11594
thorax 2.77864 -0.664162 1.27873
lowerneck -5.07031 -2.07499 -1.36395
upperneck 10.582 -2.92073 2.29296
head 4.46554 -1.38225 0.856786
rclavicle 6.18717e-015 -5.56597e-015
rhumerus -33.3374 -23.2636 -73.1628
rradius 21.8901
rwrist 9.10147
rhand -9.32675 112.865
rfingers 7.12502
rthumb 16.6319 502.173
lclavicle 6.18717e-015 -5.56597e-015
lhumerus -35.4293 6.40711 85.5287
lradius 24.7058
lwrist 5.3303
lhand -20.6423 -18.0041
lfingers 7.12502
lthumb 5.71968 11.8987
rfemur -30.5455 -1.74647 24.5749
rtibia 34.9789
rfoot -21.9454 6.30274
rtoes -0.272272
lfemur -40.9224 4.30134 -22.0663
ltibia 73.5846
lfoot -2.15989 0.414138
ltoes -6.39294
386
root 0.209836 16.1791 41.6885 17.8319 4.41361 -0.00739791
lowerback -15.6742 -0.833526 1.01131
upperback -5.73675 -1.32021 2.0853
thorax 2.72551 -0.643394 1.38228
lowerneck -4.72896 -1.96278 -1.1045
upperneck 10.5723 -2.7843 2.19365
head 4.38241 -1.31179 0.787057
rclavicle -9.06955e-016 5.56597e-015
rhumerus -31.8676 -21.0109 -75.0541
rradius 23.0664
rwrist 7.07179
rhand -6.80118 112.042
rfingers 7.12502
rthumb 19.062 501.128
lclavicle -9.06955e-016 5.56597e-015
lhumerus -36.322 8.07329 84.293
lradius 22.5848
lwrist 2.79675
lhand -19.8508 -16.6746
lfingers 7.12502
lthumb 6.48384 13.2061
rfemur -29.9005 -1.71089 24.6745
rtibia 34.8997
rfoot -22.2393 6.68329
rtoes 0.621524
lfemur -42.064 4.66915 -22.2904
ltibia 72.4974
lfoot -3.52159 0.922223
ltoes -4.81904
387
root 0.202117 16.1791 41.8811 17.9649 4.06871 0.115615
lowerback -15.5866 -0.794177 0.749374
upperback -5.90357 -1.22003 1.96577
thorax 2.50429 -0.592586 1.42477
lowerneck -4.32499 -1.91422 -1.06461
upperneck 10.4763 -2.73001 2.26592
head 4.26619 -1.28331 0.810181
rclavicle -1.717e-014 1.27222e-014
rhumerus -30.539 -18.9009 -76.6946
rradius 24.2364
rwrist 5.28207
rhand -6.5842 112.164
rfingers 7.12502
rthumb 19.2707 501.229
lclavicle -1.717e-014 1.27222e-014
lhumerus -37.2801 10.0541 82.7272
lradius 20.268
lwrist -0.0781541
lhand -19.2177 -16.2947
lfingers 7.12502
lthumb 7.095 13.5664
rfemur -29.3758 -1.74154 24.6007
rtibia 34.8646
rfoot -22.6342 6.698
rtoes -1.75783
lfemur -43.3053 4.85873 -22.6829
ltibia 71.266
lfoot -4.64972 1.53604
ltoes -4.02734
388
root 0.205809 16.1673 42.0708 18.0592 4.02578 -0.0527363
lowerback -15.5832 -0.755717 0.937852
upperback -5.96065 -1.19553 1.96437
thorax 2.43785 -0.582303 1.32148
lowerneck -4.13298 -1.85607 -1.26805
upperneck 10.3942 -2.65715 2.48456
head 4.20542 -1.24707 0.9249
rclavicle 8.63471e-015 7.95139e-016
rhumerus -29.1012 -16.8315 -78.1172
rradius 25.4141
rwrist 3.44111
rhand -6.58182 112.19
rfingers 7.12502
rthumb 19.273 501.255
lclavicle 8.63471e-015 7.95139e-016
lhumerus -38.2449 12.7521 80.6682
lradius 18.4599
lwrist -4.81994
lhand -17.8877 -14.8659
lfingers 7.12502
lthumb 8.37867 14.9479
rfemur -28.7339 -2.2894 24.9262
rtibia 34.839
rfoot -23.4025 6.56623
rtoes -6.36505
lfemur -44.5606 4.88282 -22.7207
ltibia 69.9451
lfoot -5.57806 2.00016
ltoes -2.23666
389
root 0.20807 16.1492 42.2591 18.0901 3.82145 -0.393215
lowerback -15.631 -0.696724 1.14511
upperback -5.89308 -1.15529 2.06404
thorax 2.53155 -0.563548 1.31496
lowerneck -4.05635 -1.78055 -1.32886
upperneck 10.2871 -2.55539 2.55009
head 4.15187 -1.1974 0.963111
rclavicle 1.72508e-014 -1.66979e-014
rhumerus -27.6255 -14.734 -79.425
rradius 26.6349
rwrist 1.53078
rhand -6.96343 112.333
rfingers 7.12502
rthumb 18.906 501.434
lclavicle 1.72508e-014 -1.66979e-014
lhumerus -39.2414 15.5039 78.479
lradius 16.7214
lwrist -8.98221
lhand -16.9019 -14.0224
lfingers 7.12502
lthumb 9.32996 15.7511
rfemur -28.0679 -2.6567 25.4117
rtibia 34.835
rfoot -24.1933 6.86566
rtoes -6.30145
lfemur -45.7238 5.1193 -22.5963
ltibia 68.4374
lfoot -6.44775 2.39963
ltoes -1.59493
390
root 0.205108 16.132 42.4493 18.2103 3.21246 -0.340018
lowerback -15.7816 -0.591816 0.836659
upperback -5.81511 -0.976778 2.03239
thorax 2.69565 -0.472608 1.48589
lowerneck -3.93254 -1.74875 -1.25639
upperneck 10.097 -2.50384 2.44293
head 4.05434 -1.17592 0.917088
rclavicle 1.36043e-015 5.56597e-015
rhumerus -26.3174 -12.9269 -80.5067
rradius 28.0078
rwrist 0.112287
rhand -7.05342 112.514
rfingers 7.12502
rthumb 18.8194 501.623
lclavicle 1.36043e-015 5.56597e-015
lhumerus -40.436 19.0027 75.5301
lradius 14.8859
lwrist -14.0108
lhand -16.4478 -14.1504
lfingers 7.12502
lthumb 9.76814 15.6031
rfemur -27.4769 -2.69112 25.3553
rtibia 34.8307
rfoot -24.7263 7.52461
rtoes -3.30088
lfemur -46.7787 5.48 -22.963
ltibia 66.6196
lfoot -7.30906 2.91948
ltoes -2.13177
391
root 0.208765 16.1238 42.6397 18.4205 2.59682 0.201122
lowerback -15.8809 -0.47893 0.231698
upperback -5.78636 -0.731361 1.79851
thorax 2.77808 -0.348066 1.62573
lowerneck -3.94896 -1.7897 -1.44381
upperneck 9.99724 -2.5528 2.5497
head 4.02896 -1.20287 0.983503
rclavicle 2.06301e-014 -1.51076e-014
rhumerus -25.1183 -11.3011 -81.359
rradius 29.4478
rwrist -1.26141
rhand -7.02222 112.453
rfingers 7.12502
rthumb 18.8494 501.56
lclavicle 2.06301e-014 -1.51076e-014
lhumerus -42.0982 22.7025 72.0182
lradius 13.4225
lwrist -19.6203
lhand -16.1287 -14.7018
lfingers 7.12502
lthumb 10.076 15.037
rfemur -26.9446 -3.03169 24.7346
rtibia 34.8238
rfoot -24.9637 8.44028
rtoes -1.15197
lfemur -47.6906 5.60275 -23.8609
ltibia 64.4597
lfoot -8.19644 3.44888
ltoes -3.79101
392
root 0.217882 16.1176 42.8301 18.5553 2.21255 0.477248
lowerback -15.7221 -0.622558 -0.0305815
upperback -6.28216 -0.865943 1.59927
thorax 2.17534 -0.411468 1.54405
lowerneck -2.12142 -1.53184 -1.14203
upperneck 9.5503 -2.23001 2.57079
head 3.50225 -1.04715 0.959135
rclavicle 3.80176e-015 -1.19271e-015
rhumerus -24.9794 -8.9916 -82.5051
rradius 30.8349
rwrist -2.75748
rhand -7.1168 112.259
rfingers 7.12502
rthumb 18.7585 501.374
lclavicle 3.80176e-015 -1.19271e-015
lhumerus -45.3308 24.9092 68.1587
lradius 12.9305
lwrist -23.7463
lhand -14.9864 -13.8066
lfingers 7.12502
lthumb 11.1779 15.8756
rfemur -26.221 -3.57405 24.4344
rtibia 34.6098
rfoot -25.1789 9.38097
rtoes 0.520706
lfemur -48.3879 5.60681 -24.4035
ltibia 62.0908
lfoot -8.7215 3.99889
ltoes -5.92135
393
root 0.223979 16.1069 43.0271 18.6613 1.95253 0.190156
lowerback -15.4576 -0.530862 0.269222
upperback -6.59487 -0.780393 1.56092
thorax 1.69899 -0.371949 1.35207
lowerneck -1.28737 -1.28061 -0.477938
upperneck 9.20444 -1.87242 2.0394
head 3.19795 -0.873893 0.684456
rclavicle 3.47873e-015 -6.75868e-015
rhumerus -24.7712 -7.17196 -83.2648
rradius 32.564
rwrist -4.05154
rhand -6.6824 112.43
rfingers 7.12502
rthumb 19.1763 501.505
lclavicle 3.47873e-015 -6.75868e-015
lhumerus -48.1335 26.8546 64.5469
lradius 12.5466
lwrist -27.9959
lhand -13.6048 -12.5622
lfingers 7.12502
lthumb 12.5102 17.0434
rfemur -25.3345 -4.02075 24.7845
rtibia 34.2622
rfoot -25.8082 9.75687
rtoes -0.00787132
lfemur -49.023 5.70912 -24.2844
ltibia 59.5281
lfoot -8.73887 4.62241
ltoes -8.07668
